<?xml version="1.0" encoding="UTF-8" standalone="no"?><!DOCTYPE svg PUBLIC "-//W3C//DTD SVG 1.1//EN" "http://www.w3.org/Graphics/SVG/1.1/DTD/svg11.dtd"><svg width="100%" height="100%" viewBox="0 0 128 128" version="1.1" xmlns="http://www.w3.org/2000/svg" xmlns:xlink="http://www.w3.org/1999/xlink" xml:space="preserve" xmlns:serif="http://www.serif.com/" style="fill-rule:evenodd;clip-rule:evenodd;stroke-linejoin:round;stroke-miterlimit:2;"><rect id="アートボード1" x="0" y="0" width="128" height="128" style="fill:none;"/><rect x="64" y="64" width="50" height="50" style="fill:#ffce00;"/><path d="M12,12l104,0l0,104l-104,0l-0,-104Zm2,102l100,0l0,-100l-100,0l0,100Z" style="fill:#19191e;"/><rect x="14" y="14" width="50" height="50" style="fill:#ffce00;"/><rect x="64" y="14" width="50" height="50" style="fill:#f7f7f9;"/><rect x="14" y="64" width="50" height="50" style="fill:#f7f7f9;"/><circle cx="39" cy="89" r="17.5" style="fill:#ffce00;"/><path d="M39,108.5c-10.762,0 -19.5,-8.738 -19.5,-19.5c0,-10.762 8.738,-19.5 19.5,-19.5c10.762,-0 19.5,8.738 19.5,19.5c0,10.762 -8.738,19.5 -19.5,19.5Zm0,-2c9.659,0 17.5,-7.841 17.5,-17.5c0,-9.659 -7.841,-17.5 -17.5,-17.5c-9.659,0 -17.5,7.841 -17.5,17.5c0,9.659 7.841,17.5 17.5,17.5Z" style="fill:#19191e;"/><circle cx="89" cy="39" r="17.5" style="fill:#f7f7f9;"/><path d="M89,58.5c-10.762,0 -19.5,-8.738 -19.5,-19.5c0,-10.762 8.738,-19.5 19.5,-19.5c10.762,0 19.5,8.738 19.5,19.5c0,10.762 -8.738,19.5 -19.5,19.5Zm0,-2c9.659,0 17.5,-7.841 17.5,-17.5c0,-9.659 -7.841,-17.5 -17.5,-17.5c-9.659,0 -17.5,7.841 -17.5,17.5c0,9.659 7.841,17.5 17.5,17.5Z" style="fill:#19191e;"/></svg>